<svg width="32" height="32" viewBox="0 0 32 32" fill="none" xmlns="http://www.w3.org/2000/svg">
<g clip-path="url(#clip0_1_15880)">
<circle cx="16" cy="16" r="9.87654" fill="#F3E9E9"/>
<path d="M32 15.9938C32 24.7947 24.8139 31.9753 15.9939 31.9753C7.1862 31.9753 0 24.7947 0 15.9938C0 7.18065 7.1862 0 15.9939 0C24.8139 0 32 7.18065 32 15.9938ZM21.2883 9.68467L14.1881 20.965L10.6503 16.5462C10.3187 16.1166 10.0115 15.9815 9.63074 15.9815C9.01653 15.9815 8.53745 16.4848 8.53745 17.0985C8.53745 17.4054 8.6603 17.7123 8.86913 17.9823L13.058 23.0393C13.4142 23.4936 13.7705 23.69 14.2373 23.69C14.7041 23.69 15.0849 23.469 15.3674 23.0393L23.0696 10.9735C23.2293 10.7157 23.3889 10.3966 23.3889 10.102C23.3889 9.476 22.8484 9.05866 22.2588 9.05866C21.8903 9.05866 21.5339 9.2796 21.2883 9.68467Z" fill="#CB2C2C"/>
</g>
<defs>
<clipPath id="clip0_1_15880">
<rect width="32" height="32" fill="white"/>
</clipPath>
</defs>
</svg>
